<svg xmlns="http://www.w3.org/2000/svg" width="172" height="40" fill="none"><g clip-path="url(#a)"><path fill="#023F3A" d="M20 0A20 20 0 0 0 0 20 20 20 0 0 0 20 0ZM20 40a20 20 0 0 0 20-20 20 20 0 0 0-20 20Z"/><path fill="#C13512" d="M20 0a20 20 0 0 1 20 20A20 20 0 0 1 20 0ZM20 40A20 20 0 0 1 0 20a20 20 0 0 1 20 20Z"/></g><path fill="#222" d="M62.41 11.85v2.94h-7.56v4.65h5.8v2.89h-5.8V30H51.2V11.85h11.2Zm1.65 10.9c0-1.46.29-2.75.86-3.88a6.5 6.5 0 0 1 2.36-2.6c1.01-.6 2.13-.9 3.36-.9a5.8 5.8 0 0 1 4.76 2.28V15.6h3.66V30H75.4v-2.1a5.5 5.5 0 0 1-1.95 1.68c-.82.44-1.76.65-2.84.65a6.19 6.19 0 0 1-3.33-.93 6.7 6.7 0 0 1-2.36-2.63 8.66 8.66 0 0 1-.86-3.92Zm11.34.05a4.6 4.6 0 0 0-.52-2.26 3.56 3.56 0 0 0-1.4-1.46 3.68 3.68 0 0 0-1.9-.52 3.69 3.69 0 0 0-3.28 1.95 4.54 4.54 0 0 0-.52 2.24c0 .86.17 1.63.52 2.28a4 4 0 0 0 1.4 1.49c.6.34 1.22.52 1.87.52.68 0 1.31-.17 1.9-.5a3.78 3.78 0 0 0 1.4-1.45c.35-.65.53-1.4.53-2.3Zm10.86-4.97a5.15 5.15 0 0 1 1.82-1.8 5.17 5.17 0 0 1 2.6-.64v3.82h-.96c-1.15 0-2.02.27-2.6.8-.58.54-.86 1.48-.86 2.81V30h-3.64V15.6h3.64v2.23Zm24.76-2.44c1.77 0 3.19.54 4.26 1.64 1.1 1.07 1.64 2.58 1.64 4.52V30h-3.64v-7.96c0-1.12-.29-1.98-.86-2.57a3.06 3.06 0 0 0-2.34-.91c-.99 0-1.78.3-2.36.91-.58.59-.86 1.45-.86 2.57V30h-3.64v-7.96c0-1.12-.29-1.98-.86-2.57a3.06 3.06 0 0 0-2.34-.91c-1 0-1.8.3-2.4.91-.56.59-.85 1.45-.85 2.57V30h-3.64V15.6h3.64v1.74a4.87 4.87 0 0 1 1.8-1.43 5.72 5.72 0 0 1 2.44-.52c1.12 0 2.13.24 3.01.73a4.93 4.93 0 0 1 2.06 2.02 5.24 5.24 0 0 1 2.03-2c.9-.5 1.87-.75 2.9-.75Zm11.2-1.51a2.3 2.3 0 0 1-1.61-.6 2.09 2.09 0 0 1-.63-1.53c0-.6.21-1.11.63-1.51.43-.42.97-.62 1.6-.62.65 0 1.18.2 1.6.62.43.4.64.9.64 1.5 0 .61-.21 1.13-.64 1.54-.42.4-.95.6-1.6.6Zm1.8 1.72V30h-3.65V15.6h3.64Zm11.57-.21c1.72 0 3.1.54 4.16 1.64 1.06 1.07 1.59 2.58 1.59 4.52V30h-3.64v-7.96c0-1.14-.29-2.02-.86-2.62a3.02 3.02 0 0 0-2.34-.94c-1 0-1.8.31-2.4.94-.56.6-.85 1.48-.85 2.62V30h-3.64V15.6h3.64v1.79c.49-.62 1.1-1.1 1.84-1.46.77-.36 1.6-.54 2.5-.54Zm15.6 14.84c-1.38 0-2.63-.3-3.74-.9a6.83 6.83 0 0 1-2.63-2.63 7.92 7.92 0 0 1-.93-3.9c0-1.48.32-2.78.96-3.9.66-1.13 1.55-2 2.68-2.6a7.65 7.65 0 0 1 3.77-.94c1.39 0 2.64.31 3.77.94a6.6 6.6 0 0 1 2.65 2.6c.66 1.12.99 2.42.99 3.9 0 1.47-.34 2.77-1.02 3.9a6.91 6.91 0 0 1-2.7 2.62c-1.13.61-2.4.91-3.8.91Zm0-3.17a3.56 3.56 0 0 0 3.25-1.92c.35-.64.53-1.42.53-2.34 0-1.37-.37-2.42-1.1-3.15a3.49 3.49 0 0 0-2.62-1.12c-1.04 0-1.92.38-2.63 1.12-.7.73-1.04 1.78-1.04 3.15 0 1.37.34 2.42 1.01 3.17.7.73 1.56 1.1 2.6 1.1Z"/><defs><clipPath id="a"><path fill="#fff" d="M0 0h172v40H0z"/></clipPath></defs></svg>